<?xml version="1.0" encoding="iso-8859-1"?>
<!-- Generator: Adobe Illustrator 18.1.1, SVG Export Plug-In . SVG Version: 6.00 Build 0)  -->
<svg xmlns="http://www.w3.org/2000/svg" xmlns:xlink="http://www.w3.org/1999/xlink" version="1.1" id="Capa_1" x="0px" y="0px" viewBox="0 0 350 350" style="enable-background:new 0 0 350 350;" xml:space="preserve" width="512px" height="512px">
<path d="M243.832,107.121c1.998-13.771-1.762-24.681-11.175-32.436c-7.216-5.943-16.378-8.752-24.463-11.229  c-4.958-1.521-10.085-3.093-12.867-4.937c-0.411-0.271-0.692-0.478-0.897-0.664h3.666c2.756,0,4.998-2.238,4.998-4.998V28.334  c0-2.763-2.242-5.001-4.998-5.001h-9.164v-9.523h0.946c0.788,0,1.43-0.639,1.43-1.431V1.431c0-0.792-0.642-1.431-1.43-1.431h-37.613  c-0.79,0-1.432,0.639-1.432,1.431V12.38c0,0.792,0.642,1.431,1.432,1.431h8.095v9.523h-8.457c-2.754,0-4.998,2.238-4.998,5.001  v24.523c0,2.76,2.244,4.998,4.998,4.998h3.668c-0.205,0.186-0.486,0.393-0.897,0.664c-2.782,1.844-7.909,3.416-12.867,4.937  c-8.085,2.478-17.247,5.286-24.463,11.229c-9.413,7.755-13.173,18.665-11.175,32.436c3.627,24.955,36.367,36.691,15.447,75.022  c-32.617,59.763-3.731,155.177-2.853,158.991c1.196,5.189,5.812,8.865,11.132,8.865h37.779h14.652h37.779  c5.319,0,9.936-3.676,11.132-8.865c0.878-3.814,29.765-99.229-2.852-158.991C207.465,143.812,240.205,132.076,243.832,107.121z   M196.118,316.43h-42.237c-8.168-11.23-13.43-28.811-13.43-48.584c0-33.922,15.47-61.416,34.549-61.416s34.547,27.494,34.547,61.416  C209.547,287.619,204.285,305.199,196.118,316.43z" fill="#D80027"/>
<g>
</g>
<g>
</g>
<g>
</g>
<g>
</g>
<g>
</g>
<g>
</g>
<g>
</g>
<g>
</g>
<g>
</g>
<g>
</g>
<g>
</g>
<g>
</g>
<g>
</g>
<g>
</g>
<g>
</g>
</svg>
