<?xml version="1.0" encoding="iso-8859-1"?>
<!-- Generator: Adobe Illustrator 19.0.0, SVG Export Plug-In . SVG Version: 6.00 Build 0)  -->
<svg xmlns="http://www.w3.org/2000/svg" xmlns:xlink="http://www.w3.org/1999/xlink" version="1.1" id="Layer_1" x="0px" y="0px" viewBox="0 0 512 512" style="enable-background:new 0 0 512 512;" xml:space="preserve" width="512px" height="512px">
<g>
	<g>
		<g>
			<path d="M258.617,156.185c0,4.46,3.614,8.073,8.073,8.073c4.46,0,8.073-3.614,8.073-8.073V66.362     C274.764,29.77,244.991,0,208.396,0c-36.593,0-66.364,29.77-66.364,66.362v226.634c0,27.691-22.529,50.217-50.22,50.217     c-4.46,0-8.073,3.614-8.073,8.073c0,4.46,3.614,8.073,8.073,8.073c36.594,0,66.366-29.771,66.366-66.364V66.362     c0-27.689,22.527-50.215,50.217-50.215c27.693,0,50.222,22.527,50.222,50.215V156.185z" fill="#D80027"/>
			<path d="M420.188,185.494c4.46,0,8.073-3.614,8.073-8.073v-14.263c0-9.954-6.972-18.294-16.283-20.439v-32.753     c0-4.46-3.614-8.073-8.073-8.073s-8.073,3.614-8.073,8.073v32.202h-26.193v-32.202c0-4.46-3.614-8.073-8.073-8.073     c-4.46,0-8.073,3.614-8.073,8.073v32.753c-9.311,2.145-16.283,10.485-16.283,20.439v44.966c0,12.642,8.276,23.38,19.692,27.1     v7.859c0,10.66,7.995,19.469,18.299,20.798v181.758c0,27.689-22.529,50.215-50.22,50.215s-50.217-22.527-50.217-50.215V182.019     c0-4.46-3.614-8.073-8.073-8.073s-8.073,3.614-8.073,8.073v263.619c0,36.592,29.771,66.362,66.364,66.362     c36.594,0,66.366-29.77,66.366-66.362V263.716c9.779-1.783,17.223-10.347,17.223-20.633v-7.859     c11.416-3.72,19.691-14.459,19.691-27.1v-5.945c0-4.46-3.614-8.073-8.073-8.073s-8.073,3.614-8.073,8.073v5.945     c0,6.616-5.233,12.018-11.775,12.324c-0.039,0-0.076-0.003-0.116-0.002c-0.173,0.006-0.346,0.016-0.586,0.031h-33.927     l0.096-0.002c-0.186-0.012-0.371-0.023-0.558-0.029c-0.043-0.001-0.085,0.002-0.127,0.001c-6.538-0.31-11.768-5.71-11.768-12.324     v-44.966c0-2.671,2.173-4.844,4.844-4.844h49.071c2.671,0,4.844,2.173,4.844,4.844v14.263     C412.115,181.88,415.729,185.494,420.188,185.494z M373.049,236.624h19.376v6.459c0,2.671-2.173,4.844-4.844,4.844h-9.688     c-2.672,0-4.844-2.173-4.844-4.844V236.624z" fill="#D80027"/>
			<path d="M373.407,168.631c-4.46,0-8.073,3.614-8.073,8.073s3.614,8.073,8.073,8.073h18.658c4.46,0,8.073-3.614,8.073-8.073     s-3.614-8.073-8.073-8.073H373.407z" fill="#D80027"/>
		</g>
	</g>
</g>
<g>
</g>
<g>
</g>
<g>
</g>
<g>
</g>
<g>
</g>
<g>
</g>
<g>
</g>
<g>
</g>
<g>
</g>
<g>
</g>
<g>
</g>
<g>
</g>
<g>
</g>
<g>
</g>
<g>
</g>
</svg>
